PathFileType	4	(X/Y/Z)	/Users/itak/Documents/Research/Walk-IL/dataset/trc/00560_00009.trc
DataRate	CameraRate	NumFrames	NumMarkers	Units	OrigDataRate	OrigDataStartFrame	OrigNumFrames
100.000000	100.000000	4	54	mm	100.000000	100	400
Frame#	Time	RPSI			LPSI			L3			STRN			T10			C7			CLAV			RBAK			LBAK			LSHO			LUPA			LAEL			LAOL			LWTS			LWPS			LFRA			LHPS			RSHO			RUPA			RAEL			RAOL			RWTS			RWPS			RFRA			RIFD			RHTS			RHPS			RBHD			LFHD			RFHD			LBHD			LHIP			RHIP			RASI			LASI			LKNE			LTHI			LANK			LTIP			LTOE			LMT1			LMT5			LHEE			RKNE			RTHI			RANK			RTIP			RTOE			RMT1			RMT5			RHEE			LIFD			LHTS			*53			
		X1	Y1	Z1	X2	Y2	Z2	X3	Y3	Z3	X4	Y4	Z4	X5	Y5	Z5	X6	Y6	Z6	X7	Y7	Z7	X8	Y8	Z8	X9	Y9	Z9	X10	Y10	Z10	X11	Y11	Z11	X12	Y12	Z12	X13	Y13	Z13	X14	Y14	Z14	X15	Y15	Z15	X16	Y16	Z16	X17	Y17	Z17	X18	Y18	Z18	X19	Y19	Z19	X20	Y20	Z20	X21	Y21	Z21	X22	Y22	Z22	X23	Y23	Z23	X24	Y24	Z24	X25	Y25	Z25	X26	Y26	Z26	X27	Y27	Z27	X28	Y28	Z28	X29	Y29	Z29	X30	Y30	Z30	X31	Y31	Z31	X32	Y32	Z32	X33	Y33	Z33	X34	Y34	Z34	X35	Y35	Z35	X36	Y36	Z36	X37	Y37	Z37	X38	Y38	Z38	X39	Y39	Z39	X40	Y40	Z40	X41	Y41	Z41	X42	Y42	Z42	X43	Y43	Z43	X44	Y44	Z44	X45	Y45	Z45	X46	Y46	Z46	X47	Y47	Z47	X48	Y48	Z48	X49	Y49	Z49	X50	Y50	Z50	X51	Y51	Z51	X52	Y52	Z52	X53	Y53	Z53	X54	Y54	Z54	

101	1	-1460.223022460938	1024.690063476562	-324.3007507324219	-1403.316772460938	1028.243041992188	-445.6034851074219	-1399.2890625	1120.372436523438	-385.8818054199219	-1125.3662109375	1237.121459960938	-283.3139038085938	-1364.333740234375	1242.498291015625	-379.9627075195312	-1249.82177734375	1490.339965820312	-332.2702331542969	-1115.216064453125	1349.706176757812	-281.484619140625	-1374.262939453125	1391.403686523438	-290.0797729492188	-1257.151733398438	1444.501098632812	-433.6856079101562	-1132.302124023438	1446.289672851562	-466.8716735839844	-1124.473266601562	1326.876586914062	-554.1642456054688	-1100.153442382812	1110.232177734375	-579.1038208007812	-1201.624145507812	1093.251220703125	-577.3304443359375	-994.1627197265625	923.123779296875	-438.2719116210938	-992.071044921875	875.2509155273438	-511.3889465332031	-1061.293701171875	1035.645751953125	-558.1228637695312	-968.8758544921875	826.9089965820312	-484.4958801269531	-1265.928588867188	1444.988891601562	-169.4202728271484	-1327.159912109375	1391.202026367188	-121.7976226806641	-1435.47802734375	1121.976806640625	-105.6415176391602	-1480.921875	1120.482055664062	-150.8320007324219	-1343.732421875	881.98486328125	-110.0062484741211	-1413.90869140625	872.17138671875	-67.15626525878906	-1442.813842773438	1066.286010742188	-98.99771118164062	-1364.083618164062	728.4794921875	-115.3528518676758	-1334.90380859375	792.90283203125	-75.88943481445312	-1405.992431640625	799.7674560546875	-53.55472564697266	-1156.613403320312	1646.76025390625	-227.3875579833984	-969.9175415039062	1628.283447265625	-316.3906860351562	-1024.108154296875	1632.713989257812	-182.8231658935547	-1088.243896484375	1638.26806640625	-377.8142395019531	-1259.324462890625	924.3382568359375	-527.4111328125	-1392.854248046875	945.6322021484375	-164.1131286621094	-1295.228515625	958.8810424804688	-198.542236328125	-1194.5185546875	934.419189453125	-453.04833984375	-1314.515747070312	479.0350952148438	-472.5666809082031	-1282.420043945312	643.1345825195312	-503.3792419433594	-1462.595703125	28.74744033813477	-495.9298400878906	-1411.814208984375	243.5137481689453	-499.2607727050781	-1284.321899414062	40.58545303344727	-372.2450866699219	-1364.818359375	38.10933303833008	-360.8801574707031	-1341.75244140625	34.99674987792969	-465.4097900390625	-1547.739990234375	23.33466529846191	-467.3936767578125	-1153.645751953125	559.4506225585938	-151.6490173339844	-1302.879516601562	814.4193725585938	-149.7039642333984	-1388.92822265625	142.1006164550781	-221.1283264160156	-1183.11181640625	415.2952575683594	-169.8361053466797	-1170.149536132812	127.9323196411133	-194.6800384521484	-1215.984008789062	125.8377838134766	-253.6170349121094	-1270.198364257812	131.4028778076172	-163.655029296875	-1423.75927734375	135.7105560302734	-290.7475280761719	-956.6602172851562	770.5089111328125	-391.5337829589844	-945.6572265625	859.3043823242188	-428.8948669433594	nan	nan	nan	
102	1.01	-1454.965209960938	1024.14794921875	-321.8544006347656	-1398.297241210938	1027.793823242188	-443.2074890136719	-1393.681274414062	1120.236328125	-383.6556396484375	-1118.70703125	1234.552490234375	-280.6913757324219	-1357.412109375	1241.707397460938	-377.4808044433594	-1241.19970703125	1488.703125	-329.1819458007812	-1107.736572265625	1347.037963867188	-278.5109558105469	-1366.334716796875	1390.6513671875	-287.0458984375	-1248.841064453125	1443.144409179688	-430.842529296875	-1123.720581054688	1444.101684570312	-463.5900268554688	-1115.821533203125	1324.488037109375	-550.74072265625	-1091.151977539062	1107.910766601562	-574.6113891601562	-1192.609130859375	1090.62841796875	-573.7284545898438	-985.4282836914062	922.8259887695312	-431.3292541503906	-982.04296875	874.4232788085938	-504.0841369628906	-1052.14208984375	1033.874389648438	-552.6829833984375	-958.7059326171875	826.473388671875	-476.5559387207031	-1257.54150390625	1443.212890625	-166.2843017578125	-1319.265869140625	1389.950439453125	-118.729377746582	-1430.85791015625	1122.011962890625	-103.2478713989258	-1476.08837890625	1121.189086914062	-148.6589202880859	-1342.449951171875	880.826904296875	-107.6194305419922	-1412.99169921875	871.8806762695312	-65.12325286865234	-1438.98681640625	1066.424072265625	-96.74500274658203	-1364.421264648438	727.7566528320312	-113.2144470214844	-1334.853149414062	791.7595825195312	-73.26177215576172	-1405.934326171875	799.4232788085938	-51.44173049926758	-1147.295532226562	1644.219848632812	-223.9981842041016	-960.6351928710938	1624.761474609375	-312.8850402832031	-1014.874938964844	1629.231811523438	-179.3309936523438	-1078.865234375	1635.626831054688	-374.3606872558594	-1255.185791015625	923.6420288085938	-525.9420166015625	-1386.872436523438	945.1959228515625	-161.6726989746094	-1289.450439453125	957.7440185546875	-196.6508483886719	-1189.183837890625	933.4397583007812	-451.3448181152344	-1315.0478515625	478.7008056640625	-473.7669677734375	-1281.2041015625	642.6416625976562	-503.8792114257812	-1462.635620117188	28.61002540588379	-496.0573425292969	-1412.515625	243.7137756347656	-500.0611877441406	-1284.586669921875	40.4478874206543	-372.424072265625	-1364.752807617188	38.32090377807617	-361.1330871582031	-1341.626831054688	34.79555511474609	-465.7518920898438	-1547.761108398438	23.28866004943848	-467.4396362304688	-1143.705078125	562.26611328125	-147.3532257080078	-1296.545288085938	815.0806884765625	-146.8546752929688	-1371.740234375	140.1890106201172	-214.6213684082031	-1170.556396484375	417.3550720214844	-164.7123107910156	-1152.734985351562	129.2710418701172	-188.4741058349609	-1198.651245117188	126.5472106933594	-247.3744049072266	-1252.776611328125	131.4227142333984	-157.3376312255859	-1406.536254882812	133.0751495361328	-284.1435852050781	-947.5460815429688	771.0599365234375	-383.0234985351562	-936.503173828125	859.4912109375	-420.9057922363281	nan	nan	nan	
103	1.02	-1449.510864257812	1023.397888183594	-319.3168029785156	-1393.15234375	1027.257446289062	-440.7304077148438	-1387.999389648438	1119.937744140625	-381.3307800292969	-1111.912841796875	1231.852905273438	-278.073974609375	-1350.356079101562	1240.6796875	-374.8789672851562	-1232.529052734375	1486.888793945312	-326.03173828125	-1100.153198242188	1344.229736328125	-275.5299682617188	-1358.279052734375	1389.6474609375	-283.8893432617188	-1240.513427734375	1441.618408203125	-427.9365234375	-1115.1474609375	1441.754516601562	-460.2990417480469	-1107.13134765625	1321.937133789062	-547.2360229492188	-1082.100463867188	1105.411987304688	-569.9603881835938	-1183.56640625	1087.844482421875	-569.94677734375	-976.767333984375	922.26123046875	-424.2925415039062	-972.1068725585938	873.3692626953125	-496.7074279785156	-1042.999267578125	1031.8955078125	-547.0860595703125	-948.70166015625	825.7703247070312	-468.5554809570312	-1249.015380859375	1441.236938476562	-163.0493469238281	-1311.18212890625	1388.479736328125	-115.5512161254883	-1426.03271484375	1121.895385742188	-100.7383346557617	-1471.047973632812	1121.716552734375	-146.35009765625	-1340.853881835938	879.5913696289062	-105.1274032592773	-1411.752319335938	871.501708984375	-62.96206283569336	-1434.933959960938	1066.415283203125	-94.35955047607422	-1364.437255859375	726.909423828125	-110.8945846557617	-1334.478637695312	790.5457153320312	-70.54255676269531	-1405.546997070312	798.9993286132812	-49.20372009277344	-1137.9423828125	1641.5263671875	-220.5798492431641	-951.303466796875	1621.0986328125	-309.2977294921875	-1005.619506835938	1625.605590820312	-175.7699737548828	-1069.412353515625	1632.844604492188	-370.8632507324219	-1250.79443359375	922.7659912109375	-524.417236328125	-1380.57763671875	944.4899291992188	-159.1791534423828	-1283.333740234375	956.3411254882812	-194.7120819091797	-1183.373657226562	932.3184814453125	-449.4411926269531	-1315.505004882812	478.3250732421875	-474.8807067871094	-1279.841552734375	642.0629272460938	-504.3316040039062	-1462.68603515625	28.4517765045166	-496.1737976074219	-1413.1396484375	243.8617706298828	-500.8258972167969	-1284.748779296875	40.33778381347656	-372.6097717285156	-1364.692260742188	38.51692199707031	-361.3737487792969	-1341.480590820312	34.57153701782227	-466.1070861816406	-1547.7744140625	23.25555801391602	-467.4789733886719	-1134.0205078125	564.60498046875	-142.7366943359375	-1290.065551757812	815.3998413085938	-143.8385772705078	-1353.957275390625	137.5446472167969	-207.8494415283203	-1158.027587890625	418.9422912597656	-159.2498321533203	-1134.785766601562	130.0655059814453	-181.8869171142578	-1180.736694335938	126.6359100341797	-240.7564697265625	-1234.828125	130.8007965087891	-150.6742858886719	-1388.675415039062	129.7101898193359	-277.3012390136719	-938.6818237304688	771.28759765625	-374.4681701660156	-927.489013671875	859.3758544921875	-412.8347473144531	nan	nan	nan	
104	1.03	-1443.86181640625	1022.436767578125	-316.6783142089844	-1387.872192382812	1026.607421875	-438.1548767089844	-1382.22216796875	1119.456176757812	-378.8660583496094	-1104.976684570312	1229.029174804688	-275.4658813476562	-1343.161865234375	1239.40380859375	-372.1540222167969	-1223.81494140625	1484.898071289062	-322.8204650878906	-1092.460693359375	1341.286865234375	-272.5484313964844	-1350.094116210938	1388.387817382812	-280.6135864257812	-1232.16845703125	1439.921752929688	-424.9732360839844	-1106.597290039062	1439.243286132812	-457.0099182128906	-1098.412841796875	1319.229248046875	-543.6427612304688	-1073.02490234375	1102.755493164062	-565.1678466796875	-1174.516723632812	1084.9072265625	-566.0040893554688	-968.1881103515625	921.4341430664062	-417.2032470703125	-962.29541015625	872.0989379882812	-489.2832641601562	-1033.8798828125	1029.721435546875	-541.3702392578125	-938.8860473632812	824.8179931640625	-460.5282592773438	-1240.35791015625	1439.065551757812	-159.715087890625	-1302.909301757812	1386.797729492188	-112.2662658691406	-1420.996826171875	1121.62744140625	-98.10592651367188	-1465.801879882812	1122.064697265625	-143.8976593017578	-1338.905639648438	878.2891845703125	-102.5224227905273	-1410.150756835938	871.0285034179688	-60.66651916503906	-1430.645751953125	1066.259643554688	-91.83293914794922	-1364.074584960938	725.9298706054688	-108.3638305664062	-1333.71826171875	789.2725830078125	-67.74031829833984	-1404.782104492188	798.4920043945312	-46.83678436279297	-1128.554321289062	1638.685913085938	-217.1227569580078	-941.926513671875	1617.308227539062	-305.6269226074219	-996.3455810546875	1621.84814453125	-172.1410980224609	-1059.88818359375	1629.931396484375	-367.3180847167969	-1246.16357421875	921.7210693359375	-522.8370361328125	-1373.966064453125	943.5029296875	-156.6359252929688	-1276.871337890625	954.6671142578125	-192.7337036132812	-1176.937255859375	931.0584106445312	-447.1417236328125	-1315.820922851562	477.9060363769531	-475.8728942871094	-1278.291381835938	641.3938598632812	-504.703857421875	-1462.746337890625	28.28485679626465	-496.27294921875	-1413.6455078125	243.9487915039062	-501.5125427246094	-1284.807739257812	40.22784423828125	-372.8001098632812	-1364.632080078125	38.68382263183594	-361.5904541015625	-1341.322631835938	34.32798385620117	-466.4609375	-1547.781005859375	23.23770141601562	-467.50927734375	-1124.594604492188	566.4266967773438	-137.8303680419922	-1283.427490234375	815.362060546875	-140.6632690429688	-1335.621337890625	134.1944427490234	-200.8161468505859	-1145.552612304688	420.0344543457031	-153.4820709228516	-1116.354858398438	130.3050842285156	-174.9581451416016	-1162.297241210938	126.1118927001953	-233.7963104248047	-1216.390991210938	129.5207214355469	-143.6905059814453	-1370.229614257812	125.6678237915039	-270.2204895019531	-930.0581665039062	771.1824951171875	-365.9065551757812	-918.6351928710938	858.9584350585938	-404.7157592773438	nan	nan	nan	
